<svg xmlns="http://www.w3.org/2000/svg" viewBox="0 0 400 540" role="img" aria-label="T SERVICE &amp; CO SUARL">
  <defs>
    <linearGradient id="g1" x1="0%" y1="0%" x2="100%" y2="100%">
      <stop offset="0%" stop-color="#F1D27B"/>
      <stop offset="55%" stop-color="#C9A961"/>
      <stop offset="100%" stop-color="#8B7355"/>
    </linearGradient>
    <linearGradient id="g2" x1="0%" y1="0%" x2="0%" y2="100%">
      <stop offset="0%" stop-color="#C9A961"/>
      <stop offset="100%" stop-color="#8B7355"/>
    </linearGradient>
  </defs>
  <rect width="400" height="540" fill="#0A0A0A"/>
  <g transform="translate(200 200)" fill="none" stroke="url(#g1)" stroke-width="2.4" opacity="0.95">
    <ellipse cx="0" cy="0" rx="160" ry="22" transform="rotate(0)"/>
    <ellipse cx="0" cy="0" rx="160" ry="22" transform="rotate(7.5)"/>
    <ellipse cx="0" cy="0" rx="160" ry="22" transform="rotate(15)"/>
    <ellipse cx="0" cy="0" rx="160" ry="22" transform="rotate(22.5)"/>
    <ellipse cx="0" cy="0" rx="160" ry="22" transform="rotate(30)"/>
    <ellipse cx="0" cy="0" rx="160" ry="22" transform="rotate(37.5)"/>
    <ellipse cx="0" cy="0" rx="160" ry="22" transform="rotate(45)"/>
    <ellipse cx="0" cy="0" rx="160" ry="22" transform="rotate(52.5)"/>
    <ellipse cx="0" cy="0" rx="160" ry="22" transform="rotate(60)"/>
    <ellipse cx="0" cy="0" rx="160" ry="22" transform="rotate(67.5)"/>
    <ellipse cx="0" cy="0" rx="160" ry="22" transform="rotate(75)"/>
    <ellipse cx="0" cy="0" rx="160" ry="22" transform="rotate(82.5)"/>
    <ellipse cx="0" cy="0" rx="160" ry="22" transform="rotate(90)"/>
    <ellipse cx="0" cy="0" rx="160" ry="22" transform="rotate(97.5)"/>
    <ellipse cx="0" cy="0" rx="160" ry="22" transform="rotate(105)"/>
    <ellipse cx="0" cy="0" rx="160" ry="22" transform="rotate(112.5)"/>
    <ellipse cx="0" cy="0" rx="160" ry="22" transform="rotate(120)"/>
    <ellipse cx="0" cy="0" rx="160" ry="22" transform="rotate(127.5)"/>
    <ellipse cx="0" cy="0" rx="160" ry="22" transform="rotate(135)"/>
    <ellipse cx="0" cy="0" rx="160" ry="22" transform="rotate(142.5)"/>
    <ellipse cx="0" cy="0" rx="160" ry="22" transform="rotate(150)"/>
    <ellipse cx="0" cy="0" rx="160" ry="22" transform="rotate(157.5)"/>
    <ellipse cx="0" cy="0" rx="160" ry="22" transform="rotate(165)"/>
    <ellipse cx="0" cy="0" rx="160" ry="22" transform="rotate(172.5)"/>
  </g>
  <g transform="translate(155 195)" fill="none" stroke="url(#g1)" stroke-width="2.6" stroke-linecap="round" stroke-linejoin="round">
    <rect x="0" y="-12" width="28" height="16" rx="1.5"/>
    <path d="M 28 -7 L 38 -7 L 44 0 L 44 4 L 28 4 Z"/>
    <circle cx="7" cy="7" r="3.5" fill="#0A0A0A"/>
    <circle cx="18" cy="7" r="3.5" fill="#0A0A0A"/>
    <circle cx="37" cy="7" r="3.5" fill="#0A0A0A"/>
  </g>
  <line x1="208" y1="160" x2="208" y2="240" stroke="url(#g1)" stroke-width="2.2"/>
  <text x="220" y="222" font-family="Cinzel, 'Cormorant Garamond', Georgia, serif" font-weight="600" font-size="56" fill="url(#g1)" letter-spacing="1">T.S</text>
  <text x="200" y="430" text-anchor="middle" font-family="Cinzel, 'Cormorant Garamond', Georgia, serif" font-weight="600" font-size="22" fill="url(#g1)" letter-spacing="2.8">T SERVICE &amp; CO SUARL</text>
  <line x1="90" y1="455" x2="310" y2="455" stroke="url(#g2)" stroke-width="1"/>
  <text x="200" y="486" text-anchor="middle" font-family="Cinzel, 'Cormorant Garamond', Georgia, serif" font-weight="400" font-size="11.5" fill="url(#g2)" letter-spacing="2.6">T SERVICE PILOTE VOTRE LOGISTIQUE</text>
</svg>
