<svg xmlns="http://www.w3.org/2000/svg" viewBox="0 0 400 400" role="img" aria-label="T SERVICE & CO">
  <defs>
    <linearGradient id="g1" x1="0%" y1="0%" x2="100%" y2="100%">
      <stop offset="0%" stop-color="#F1D27B"/>
      <stop offset="55%" stop-color="#C9A961"/>
      <stop offset="100%" stop-color="#8B7355"/>
    </linearGradient>
  </defs>
  <rect width="400" height="400" fill="#0A0A0A"/>
  <g transform="translate(200 200)" fill="none" stroke="url(#g1)" stroke-width="2.4" opacity="0.95">
    <ellipse cx="0" cy="0" rx="160" ry="22" transform="rotate(0)"/>
    <ellipse cx="0" cy="0" rx="160" ry="22" transform="rotate(7.5)"/>
    <ellipse cx="0" cy="0" rx="160" ry="22" transform="rotate(15)"/>
    <ellipse cx="0" cy="0" rx="160" ry="22" transform="rotate(22.5)"/>
    <ellipse cx="0" cy="0" rx="160" ry="22" transform="rotate(30)"/>
    <ellipse cx="0" cy="0" rx="160" ry="22" transform="rotate(37.5)"/>
    <ellipse cx="0" cy="0" rx="160" ry="22" transform="rotate(45)"/>
    <ellipse cx="0" cy="0" rx="160" ry="22" transform="rotate(52.5)"/>
    <ellipse cx="0" cy="0" rx="160" ry="22" transform="rotate(60)"/>
    <ellipse cx="0" cy="0" rx="160" ry="22" transform="rotate(67.5)"/>
    <ellipse cx="0" cy="0" rx="160" ry="22" transform="rotate(75)"/>
    <ellipse cx="0" cy="0" rx="160" ry="22" transform="rotate(82.5)"/>
    <ellipse cx="0" cy="0" rx="160" ry="22" transform="rotate(90)"/>
    <ellipse cx="0" cy="0" rx="160" ry="22" transform="rotate(97.5)"/>
    <ellipse cx="0" cy="0" rx="160" ry="22" transform="rotate(105)"/>
    <ellipse cx="0" cy="0" rx="160" ry="22" transform="rotate(112.5)"/>
    <ellipse cx="0" cy="0" rx="160" ry="22" transform="rotate(120)"/>
    <ellipse cx="0" cy="0" rx="160" ry="22" transform="rotate(127.5)"/>
    <ellipse cx="0" cy="0" rx="160" ry="22" transform="rotate(135)"/>
    <ellipse cx="0" cy="0" rx="160" ry="22" transform="rotate(142.5)"/>
    <ellipse cx="0" cy="0" rx="160" ry="22" transform="rotate(150)"/>
    <ellipse cx="0" cy="0" rx="160" ry="22" transform="rotate(157.5)"/>
    <ellipse cx="0" cy="0" rx="160" ry="22" transform="rotate(165)"/>
    <ellipse cx="0" cy="0" rx="160" ry="22" transform="rotate(172.5)"/>
  </g>
  <g transform="translate(132 190)" fill="none" stroke="url(#g1)" stroke-width="3.5" stroke-linecap="round" stroke-linejoin="round">
    <rect x="0" y="-18" width="42" height="24" rx="2"/>
    <path d="M 42 -10 L 58 -10 L 66 0 L 66 6 L 42 6 Z"/>
    <circle cx="10" cy="10" r="5.5" fill="#0A0A0A"/>
    <circle cx="28" cy="10" r="5.5" fill="#0A0A0A"/>
    <circle cx="56" cy="10" r="5.5" fill="#0A0A0A"/>
  </g>
  <line x1="208" y1="135" x2="208" y2="265" stroke="url(#g1)" stroke-width="3"/>
  <text x="228" y="248" font-family="Cinzel, 'Cormorant Garamond', Georgia, serif" font-weight="700" font-size="108" fill="url(#g1)" letter-spacing="3">T.S</text>
</svg>
